# xmcd
#
# Track frame offsets: 
#        210
#        13429
#        27066
#        40632
#        55609
#        70117
#        84019
#        98301
#        112408
#        127072
#        142152
#        156966
#        171878
#        185474
#        199801
#        213629
#        227714
#        242095
#        255977
#        269879
#        283713
#        298095
#
# Disc length: 4171 seconds
#
# Revision: 2
# Processed by: cddbd v1.5.2PL0 Copyright (c) Steve Scherf et al.
# Submitted via: ExactAudioCopyFreeDBPlugin 1.0
#
DISCID=48104916
DTITLE=The Skillet Lickers - Volume 4, 1928 - 1930
DYEAR=2012
DGENRE=Country
TTITLE0=Rocky Pallet
TTITLE1=Soldiers Joy
TTITLE2=Rock That Cradle Lucy
TTITLE3=There'll Be a Hot Time in the Old Town Tonight
TTITLE4=Bonepart's Retreat
TTITLE5=Hell's Broke loose In Georgia
TTITLE6=Giddap Napoleon
TTITLE7=Cripple Creek
TTITLE8=Kickapoo Medicine Show - Part 1
TTITLE9=Kickapoo Medicine Show - Part 2
TTITLE10=A Night In A Blind Tiger - Part 1
TTITLE11=A Night In A Blind Tiger - Part 2
TTITLE12=A Bee Hunt On Hill For Sartin Creek - Part 1
TTITLE13=A Bee Hunt On Hill For Sartin Creek - Part 2
TTITLE14=Leather Breeches
TTITLE15=New Arkansas Traveller
TTITLE16=Sugar In The Gourd
TTITLE17=Georgia Wagner
TTITLE18=Sal's Gone To The Cider Mill
TTITLE19=Nigger In The Woodpile
TTITLE20=Devilish Mary (earlier version)
TTITLE21=Soldier, Will You Marry Me
EXTD=Document DOCD-8059
EXTT0=
EXTT1=
EXTT2=
EXTT3=
EXTT4=
EXTT5=
EXTT6=
EXTT7=
EXTT8=
EXTT9=
EXTT10=
EXTT11=
EXTT12=
EXTT13=
EXTT14=
EXTT15=
EXTT16=
EXTT17=
EXTT18=
EXTT19=
EXTT20=
EXTT21=
PLAYORDER=
